# xmcd
#
# Track frame offsets:
#	150
#	19532
#	42979
#	60674
#	91208
#	112944
#	131583
#	156464
#	175737
#
# Disc length: 2390 seconds
#
# Revision: 1
# Processed by: cddbd v1.5.2PL0 Copyright (c) Steve Scherf et al.
# Submitted via: EZCDAudioConverter 5.5.1.1
#
DISCID=6b095409
DTITLE=Jess Young - The Reverend Jess-A-Y Did Ya Do It?
DYEAR=2004
DGENRE=
TTITLE0=Hustler
TTITLE1=Beautiful That She Was
TTITLE2=Blink
TTITLE3=End of the Road
TTITLE4=Why Did They Do That?
TTITLE5=St. James Infirmary Blues
TTITLE6=Frozen Death
TTITLE7=So Lucky
TTITLE8=Jess's Theme
EXTD=
EXTT0=
EXTT1=
EXTT2=
EXTT3=
EXTT4=
EXTT5=
EXTT6=
EXTT7=
EXTT8=
PLAYORDER=
